<?xml version="1.0" encoding="UTF-8"?>
<svg width="16px" height="16px" viewBox="0 0 16 16" version="1.1" xmlns="http://www.w3.org/2000/svg" xmlns:xlink="http://www.w3.org/1999/xlink">
    <title>勾选</title>
    <g id="场景英语web端20230929✅" stroke="none" stroke-width="1" fill="none" fill-rule="evenodd">
        <g id="图标" transform="translate(-50.000000, -20.000000)">
            <g id="勾选" transform="translate(50.000000, 20.000000)">
                <rect id="Rectangle-4" fill="#4D57FF" x="0" y="0" width="16" height="16" rx="2"></rect>
                <path d="M13.2365896,5.40263765 L6.691677,11.9475275 C6.63849852,12.0007288 6.57123468,12.0315163 6.50071687,12.0408914 C6.37995598,12.0771856 6.24363065,12.0477179 6.14821886,11.9523061 L2.77032716,8.57441437 C2.63211317,8.43620038 2.63211317,8.21210894 2.77032716,8.0738722 L3.19020279,7.65401932 C3.32839403,7.51578258 3.55250822,7.51578258 3.69074496,7.65401932 L6.41757003,10.3808444 L12.3161946,4.48221985 C12.4498576,4.34857961 12.6720603,4.35410908 12.8125271,4.49457582 L13.2242792,4.90632791 C13.3647231,5.04677189 13.3702526,5.26899742 13.2365896,5.40263765 L13.2365896,5.40263765 Z" id="Path" stroke="#FFFFFF" fill="#FFFFFF"></path>
            </g>
        </g>
    </g>
</svg>