<?xml version="1.0" encoding="UTF-8"?>
<svg width="163px" height="29px" viewBox="0 0 163 29" version="1.1" xmlns="http://www.w3.org/2000/svg" xmlns:xlink="http://www.w3.org/1999/xlink">
    <title>logo</title>
    <g id="页面-1" stroke="none" stroke-width="1" fill="none" fill-rule="evenodd">
        <g id="首页" transform="translate(-272.000000, -58.000000)">
            <g id="logo-2" transform="translate(272.000000, 58.000000)">
                <g id="logo" transform="translate(0.000000, 0.000000)">
                    <g>
                        <path d="M29,13.456 L13.456,13.456 L13.456,29 L0,29 L0,0 L29,0 L29,13.456 Z" id="形状结合备份" fill="#505AFF"></path>
                        <rect id="矩形备份-3" fill="#F89400" x="19.3333333" y="19.3333333" width="9.66666667" height="9.66666667"></rect>
                    </g>
                    <g id="场景英语" transform="translate(41.861929, 1.291433)" fill="#333333" fill-rule="nonzero">
                        <path d="M0.744771727,25.8187532 L0,23.3361808 L8.31661761,19.8605794 L9.06138934,22.4672804 L0.744771727,25.8187532 Z M6.20643105,22.4672804 L3.10321553,22.4672804 L3.10321553,8.93726072 L0.248257242,8.93726072 L0.248257242,6.20643105 L3.10321553,6.20643105 L3.10321553,0.372385863 L6.20643105,0.372385863 L6.20643105,6.20643105 L8.93726072,6.20643105 L8.93726072,8.93726072 L6.20643105,8.93726072 L6.20643105,22.4672804 Z M10.4268042,11.0474473 L10.4268042,9.06138934 L20.4812225,3.22734415 L10.79919,3.22734415 L10.79919,0.496514484 L26.9359108,0.496514484 L26.9359108,2.48257242 L17.0056211,8.31661761 L27.4324253,8.31661761 L26.8117822,25.8187532 L19.1158076,25.8187532 L19.1158076,23.0879235 L23.7085666,23.0879235 L24.2050811,14.5230487 L10.0544183,25.8187532 L9.4337752,22.7155377 L24.0809525,11.0474473 L18.6192932,11.0474473 L10.1785469,17.7503928 L9.4337752,14.7713059 L14.2747914,11.0474473 L10.4268042,11.0474473 Z" id="场"></path>
                        <path d="M33.6063284,25.8187532 L31.3720132,24.0809525 L38.323216,21.9707659 L40.5575311,23.7085666 L33.6063284,25.8187532 Z M49.122406,23.7085666 L51.3567212,21.9707659 L58.307924,24.0809525 L56.0736088,25.8187532 L49.122406,23.7085666 Z M35.3441291,3.97211588 L54.4599367,3.97211588 L54.4599367,2.60670104 L35.3441291,2.60670104 L35.3441291,3.97211588 Z M54.4599367,6.08230243 L35.3441291,6.08230243 L35.3441291,7.44771727 L54.4599367,7.44771727 L54.4599367,6.08230243 Z M54.5840653,18.7434218 L54.5840653,17.0056211 L35.3441291,17.0056211 L35.3441291,18.7434218 L54.5840653,18.7434218 Z M43.536618,10.5509328 L46.7639622,10.1785469 L47.2604767,11.4198331 L58.1837953,11.4198331 L58.1837953,13.6541483 L31.3720132,13.6541483 L31.3720132,11.4198331 L43.9090039,11.4198331 L43.536618,10.5509328 Z M41.4264315,23.7085666 L43.9090039,23.7085666 L43.9090039,20.8536083 L32.2409135,20.8536083 L32.2409135,14.8954345 L57.5631522,14.8954345 L57.5631522,20.8536083 L47.0122194,20.8536083 L47.0122194,25.8187532 L41.4264315,25.8187532 L41.4264315,23.7085666 Z M57.5631522,0.372385863 L57.5631522,9.55790382 L32.2409135,9.55790382 L32.2409135,0.372385863 L57.5631522,0.372385863 Z" id="景"></path>
                        <path d="M74.1638595,15.6402063 L74.1638595,10.9233187 L66.9643995,10.9233187 L66.9643995,15.6402063 L74.1638595,15.6402063 Z M77.267075,10.9233187 L77.267075,15.6402063 L84.7147923,15.6402063 L84.7147923,10.9233187 L77.267075,10.9233187 Z M83.2252488,0.124128621 L83.2252488,1.24128621 L89.059294,1.24128621 L89.059294,3.97211588 L83.2252488,3.97211588 L83.2252488,6.20643105 L80.1220333,6.20643105 L80.1220333,3.97211588 L71.5571585,3.97211588 L71.5571585,6.20643105 L68.4539429,6.20643105 L68.4539429,3.97211588 L62.4957691,3.97211588 L62.4957691,1.24128621 L68.4539429,1.24128621 L68.4539429,0.124128621 L71.5571585,0.124128621 L71.5571585,1.24128621 L80.1220333,1.24128621 L80.1220333,0.124128621 L83.2252488,0.124128621 Z M75.7775316,21.8466373 L64.3576984,25.8187532 L62.3716405,23.8326953 L74.1638595,19.6123221 L74.1638595,18.3710359 L62.3716405,18.3710359 L62.3716405,15.6402063 L63.8611839,15.6402063 L63.8611839,8.19248899 L74.1638595,8.19248899 L74.1638595,5.95817381 L77.267075,5.95817381 L77.267075,8.19248899 L87.8180078,8.19248899 L87.8180078,15.6402063 L89.1834226,15.6402063 L89.1834226,18.3710359 L77.267075,18.3710359 L77.267075,19.6123221 L89.3075513,23.8326953 L87.1973647,25.8187532 L75.7775316,21.8466373 Z" id="英"></path>
                        <path d="M92.7506247,23.0879235 L99.4535702,17.9986501 L100.074213,20.7294797 L93.4953964,25.8187532 L92.7506247,23.0879235 Z M109.38386,12.9093766 L106.280644,12.9093766 L109.011474,2.3584438 L112.11469,2.3584438 L109.38386,12.9093766 Z M95.3573257,0 L99.9500847,4.7168876 L98.7087985,7.44771727 L94.1160395,2.73082966 L95.3573257,0 Z M105.411744,23.0879235 L116.831577,23.0879235 L116.831577,19.7364508 L105.411744,19.7364508 L105.411744,23.0879235 Z M97.7157695,21.8466373 L94.612554,22.4672804 L94.612554,11.2957045 L92.6264961,11.2957045 L92.6264961,8.56487486 L97.7157695,8.56487486 L97.7157695,21.8466373 Z M102.060271,3.47560139 L102.060271,0.744771727 L119.810664,0.744771727 L119.810664,3.47560139 L102.060271,3.47560139 Z M119.065892,5.95817381 L118.445249,12.0404762 L120.431307,12.0404762 L120.431307,14.8954345 L101.563757,14.8954345 L101.563757,12.0404762 L115.466162,12.0404762 L115.838548,8.68900348 L102.680914,8.68900348 L102.680914,5.95817381 L119.065892,5.95817381 Z M119.810664,25.8187532 L102.308529,25.8187532 L102.308529,17.0056211 L119.810664,17.0056211 L119.810664,25.8187532 Z" id="语"></path>
                    </g>
                </g>
            </g>
        </g>
    </g>
</svg>