<?xml version="1.0" encoding="UTF-8"?>
<svg width="18px" height="18px" viewBox="0 0 18 18" version="1.1" xmlns="http://www.w3.org/2000/svg" xmlns:xlink="http://www.w3.org/1999/xlink">
    <title>用户反馈</title>
    <g id="页面-1" stroke="none" stroke-width="1" fill="none" fill-rule="evenodd">
        <g id="账号中心" transform="translate(-46.000000, -489.000000)" fill="#333333" fill-rule="nonzero">
            <g id="用户反馈" transform="translate(46.000000, 489.000000)">
                <path d="M16.3701256,4.49800973 C16.0528751,4.49800973 15.8625248,4.75276426 15.8625248,5.0075188 L15.8625248,15.9619637 C15.8625248,16.5351614 15.4183741,16.9809819 14.8473232,16.9809819 L2.09385327,16.9809819 C1.52280238,16.9809819 1.07865169,16.5351614 1.07865169,15.9619637 L1.07865169,3.0968598 C1.07865169,2.5236621 1.52280238,2.07784166 2.09385327,2.07784166 L12.4362194,2.07784166 C12.7534699,2.07784166 12.9438202,1.82308713 12.9438202,1.5683326 C12.9438202,1.31357806 12.6900198,1.05882353 12.4362194,1.05882353 L2.09385327,1.05882353 C0.951751487,1.05882353 0,2.01415303 0,3.0968598 L0,15.9619637 C0,17.1083591 0.951751487,18 2.09385327,18 L14.8473232,18 C15.989425,18 16.9411765,17.1083591 16.9411765,15.9619637 L16.9411765,5.0075188 C16.8777264,4.68907563 16.6873761,4.49800973 16.3701256,4.49800973 Z" id="路径"></path>
                <path d="M9.03597944,6.35294118 L3.66990291,6.35294118 C3.36150771,6.35294118 3.17647059,6.61764706 3.17647059,6.88235294 C3.17647059,7.14705882 3.42318675,7.41176471 3.66990291,7.41176471 L9.03597944,7.41176471 C9.34437464,7.41176471 9.52941176,7.14705882 9.52941176,6.88235294 C9.52941176,6.55147059 9.2826956,6.35294118 9.03597944,6.35294118 Z" id="路径"></path>
                <path d="M2.11764706,10.0588235 C2.11764706,10.3235294 2.38235294,10.5882353 2.64705882,10.5882353 L12.1764706,10.5882353 C12.5073529,10.5882353 12.7058824,10.3235294 12.7058824,10.0588235 C12.7058824,9.79411765 12.4411765,9.52941176 12.1764706,9.52941176 L2.64705882,9.52941176 C2.38235294,9.52941176 2.11764706,9.79411765 2.11764706,10.0588235 Z" id="路径"></path>
                <path d="M17.8592703,0.14314567 C17.6716307,-0.0477152234 17.358898,-0.0477152234 17.1087118,0.14314567 L10.728965,6.56879576 C10.5413254,6.75965665 10.5413254,7.07775814 10.728965,7.26861904 C10.9166046,7.45947993 11.2293373,7.45947993 11.4795235,7.26861904 L17.8592703,0.842968947 C18.0469099,0.652108054 18.0469099,0.334006564 17.8592703,0.14314567 Z" id="路径"></path>
            </g>
        </g>
    </g>
</svg>